<svg width="28" height="26" viewBox="0 0 28 26" fill="none" xmlns="http://www.w3.org/2000/svg">
<path fill-rule="evenodd" clip-rule="evenodd" d="M6.92881 3.25002C7.57828 3.25002 8.10478 3.73505 8.10478 4.33336C8.10478 4.93166 7.57828 5.41669 6.92881 5.41669H4.45636C3.83092 5.41669 3.3149 5.8677 3.28203 6.44308L2.35364 22.6931C2.3195 23.2905 2.8176 23.8004 3.52797 23.8333H24.4721C25.1216 23.8333 25.6481 23.3483 25.6465 22.6931L24.7181 6.44306C24.6852 5.86767 24.1692 5.41667 23.5437 5.41667H21.0403C20.3909 5.41667 19.8644 4.93164 19.8644 4.33333C19.8644 3.73502 20.3909 3.25 21.0403 3.25H23.5437C25.4201 3.25 26.9681 4.60303 27.0667 6.32918L27.9951 22.5792C27.9992 22.6646 27.9992 22.6646 28 22.75C28 24.5449 26.4205 26 24.4721 26H3.52797C3.43522 25.9993 3.43522 25.9993 3.34255 25.9955C1.39685 25.9012 -0.0974411 24.3716 0.00496434 22.5792L0.933355 6.3292C1.03197 4.60305 2.58002 3.25002 4.45636 3.25002H6.92881ZM11.6327 5.41666C11.6327 6.01497 11.1062 6.49999 10.4567 6.49999C9.80725 6.49999 9.28075 6.01497 9.28075 5.41666V3.25C9.28075 1.45507 10.8602 0 12.8086 0H15.1606C17.109 0 18.6884 1.45507 18.6884 3.25V5.41666C18.6884 6.01497 18.1619 6.49999 17.5125 6.49999C16.863 6.49999 16.3365 6.01497 16.3365 5.41666V3.25C16.3365 2.65169 15.81 2.16666 15.1606 2.16666H12.8086C12.1592 2.16666 11.6327 2.65169 11.6327 3.25V5.41666Z" fill="#918E85"/>
</svg>
