<svg width="23" height="23" viewBox="0 0 23 23" fill="none" xmlns="http://www.w3.org/2000/svg">
<path fill-rule="evenodd" clip-rule="evenodd" d="M5.69153 2.87502C6.22502 2.87502 6.65749 3.30408 6.65749 3.83335C6.65749 4.36263 6.22502 4.79169 5.69153 4.79169H3.66058C3.14682 4.79169 2.72295 5.19066 2.69595 5.69965L1.93334 20.0746C1.9053 20.6032 2.31445 21.0542 2.89798 21.0833H20.1021C20.6356 21.0833 21.0681 20.6543 21.0667 20.0746L20.3041 5.69963C20.2771 5.19063 19.8532 4.79167 19.3395 4.79167H17.2831C16.7497 4.79167 16.3172 4.36261 16.3172 3.83333C16.3172 3.30406 16.7497 2.875 17.2831 2.875H19.3395C20.8808 2.875 22.1524 4.07191 22.2334 5.59889L22.996 19.9739C22.9993 20.0494 22.9993 20.0494 23 20.125C23 21.7128 21.7026 23 20.1021 23H2.89798C2.82179 22.9993 2.82179 22.9993 2.74567 22.996C1.14741 22.9126 -0.0800409 21.5595 0.00407785 19.9739L0.766684 5.59891C0.847692 4.07193 2.1193 2.87502 3.66058 2.87502H5.69153ZM9.55542 4.79166C9.55542 5.32093 9.12294 5.74999 8.58945 5.74999C8.05596 5.74999 7.62348 5.32093 7.62348 4.79166V2.875C7.62348 1.28718 8.92092 0 10.5214 0H12.4533C14.0538 0 15.3512 1.28718 15.3512 2.875V4.79166C15.3512 5.32093 14.9187 5.74999 14.3853 5.74999C13.8518 5.74999 13.4193 5.32093 13.4193 4.79166V2.875C13.4193 2.34572 12.9868 1.91666 12.4533 1.91666H10.5214C9.9879 1.91666 9.55542 2.34572 9.55542 2.875V4.79166Z" fill="#918E85"/>
</svg>
