<svg width="45" height="45" viewBox="0 0 45 45" fill="none" xmlns="http://www.w3.org/2000/svg">
<rect x="2.8125" y="2.8125" width="39.375" height="39.375" rx="6" fill="url(#paint0_radial_15_163)"/>
<rect x="2.8125" y="2.8125" width="39.375" height="39.375" rx="6" fill="url(#paint1_radial_15_163)"/>
<rect x="2.8125" y="2.8125" width="39.375" height="39.375" rx="6" fill="#D1A028"/>
<path d="M32.3438 14.7656C32.3438 15.9306 31.3993 16.875 30.2344 16.875C29.0694 16.875 28.125 15.9306 28.125 14.7656C28.125 13.6006 29.0694 12.6562 30.2344 12.6562C31.3993 12.6562 32.3438 13.6006 32.3438 14.7656Z" fill="#0B0A0A"/>
<path fill-rule="evenodd" clip-rule="evenodd" d="M22.5 29.5312C26.3833 29.5312 29.5312 26.3833 29.5312 22.5C29.5312 18.6167 26.3833 15.4688 22.5 15.4688C18.6167 15.4688 15.4688 18.6167 15.4688 22.5C15.4688 26.3833 18.6167 29.5312 22.5 29.5312ZM22.5 26.7188C24.83 26.7188 26.7188 24.83 26.7188 22.5C26.7188 20.17 24.83 18.2812 22.5 18.2812C20.17 18.2812 18.2812 20.17 18.2812 22.5C18.2812 24.83 20.17 26.7188 22.5 26.7188Z" fill="#0B0A0A"/>
<path fill-rule="evenodd" clip-rule="evenodd" d="M8.4375 21.9375C8.4375 17.2121 8.4375 14.8493 9.35713 13.0445C10.1661 11.4568 11.4568 10.1661 13.0445 9.35713C14.8493 8.4375 17.2121 8.4375 21.9375 8.4375H23.0625C27.7879 8.4375 30.1507 8.4375 31.9555 9.35713C33.5432 10.1661 34.8339 11.4568 35.6429 13.0445C36.5625 14.8493 36.5625 17.2121 36.5625 21.9375V23.0625C36.5625 27.7879 36.5625 30.1507 35.6429 31.9555C34.8339 33.5432 33.5432 34.8339 31.9555 35.6429C30.1507 36.5625 27.7879 36.5625 23.0625 36.5625H21.9375C17.2121 36.5625 14.8493 36.5625 13.0445 35.6429C11.4568 34.8339 10.1661 33.5432 9.35713 31.9555C8.4375 30.1507 8.4375 27.7879 8.4375 23.0625V21.9375ZM21.9375 11.25H23.0625C25.4716 11.25 27.1093 11.2522 28.3752 11.3556C29.6082 11.4564 30.2388 11.639 30.6787 11.8631C31.7371 12.4024 32.5976 13.2629 33.1369 14.3213C33.361 14.7612 33.5436 15.3918 33.6444 16.6248C33.7478 17.8907 33.75 19.5284 33.75 21.9375V23.0625C33.75 25.4716 33.7478 27.1093 33.6444 28.3752C33.5436 29.6082 33.361 30.2388 33.1369 30.6787C32.5976 31.7371 31.7371 32.5976 30.6787 33.1369C30.2388 33.361 29.6082 33.5436 28.3752 33.6444C27.1093 33.7478 25.4716 33.75 23.0625 33.75H21.9375C19.5284 33.75 17.8907 33.7478 16.6248 33.6444C15.3918 33.5436 14.7612 33.361 14.3213 33.1369C13.2629 32.5976 12.4024 31.7371 11.8631 30.6787C11.639 30.2388 11.4564 29.6082 11.3556 28.3752C11.2522 27.1093 11.25 25.4716 11.25 23.0625V21.9375C11.25 19.5284 11.2522 17.8907 11.3556 16.6248C11.4564 15.3918 11.639 14.7612 11.8631 14.3213C12.4024 13.2629 13.2629 12.4024 14.3213 11.8631C14.7612 11.639 15.3918 11.4564 16.6248 11.3556C17.8907 11.2522 19.5284 11.25 21.9375 11.25Z" fill="#0B0A0A"/>
<defs>
<radialGradient id="paint0_radial_15_163" cx="0" cy="0" r="1" gradientUnits="userSpaceOnUse" gradientTransform="translate(16.875 32.3438) rotate(-55.3758) scale(35.8869)">
<stop stop-color="#B13589"/>
<stop offset="0.79309" stop-color="#C62F94"/>
<stop offset="1" stop-color="#8A3AC8"/>
</radialGradient>
<radialGradient id="paint1_radial_15_163" cx="0" cy="0" r="1" gradientUnits="userSpaceOnUse" gradientTransform="translate(15.4687 43.5937) rotate(-65.1363) scale(31.7732)">
<stop stop-color="#E0E8B7"/>
<stop offset="0.444662" stop-color="#FB8A2E"/>
<stop offset="0.71474" stop-color="#E2425C"/>
<stop offset="1" stop-color="#E2425C" stop-opacity="0"/>
</radialGradient>
</defs>
</svg>
