<svg width="136" height="96" viewBox="0 0 136 96" fill="none" xmlns="http://www.w3.org/2000/svg">
<path d="M36.1972 1.06636V1.81747C43.9517 2.77889 45.3333 6.62459 45.0547 8.42726H25.1671V9.17837C30.7824 9.41873 32.1863 12.8839 32.1863 14.5864V47.6353C32.1863 51.2407 31.8855 51.8416 31.6849 52.2922C30.6153 54.6958 26.7269 55.497 25 55.5971V56.4985H45.0547C45.0547 61.4258 38.9269 62.8579 35.863 62.958V63.8594H66.9478V62.958C57.99 62.3571 56.4191 58.201 56.7533 56.198C64.7752 55.8375 70.903 52.7429 72.9642 51.2407L68.9533 47.4851C63.6053 53.1335 57.8579 54.7042 55.5834 54.9962C52.7758 55.3568 48.7314 55.1465 47.0602 54.9962C41.378 54.4855 41.2109 50.1891 41.0438 47.6353V10.0797C47.8624 8.87793 54.3579 9.67911 56.7533 10.2299C63.8393 11.6721 68.7304 17.4406 70.2902 20.1446L75.3039 15.1873C69.1538 9.65908 60.3743 8.37718 56.7533 8.42726C57.6892 3.01925 63.4939 1.76739 66.2793 1.81747V1.06636C66.1456 0.946178 46.1689 1.01628 36.1972 1.06636Z" fill="#D1A028" stroke="#D1A028"/>
<path d="M56.2519 11.8824C52.642 10.9209 47.6172 11.1813 45.556 11.4317L45.3889 53.1936C51.4053 54.155 55.1377 53.3939 56.2519 52.8931L56.0848 37.27C56.0848 33.214 58.4245 34.2655 59.7615 35.6175L87.5038 63.8594H109.731V62.8078C102.779 62.928 97.6983 59.0522 95.86 57.3998L66.4464 27.9562L71.7943 23.1491C72.8796 24.1105 73.4721 30.0593 73.6326 32.9135L81.4874 40.5749C84.9636 29.3983 80.4847 20.5953 77.8107 17.5908C92.6512 3.77035 100.707 1.41686 102.879 1.96768V1.06635H76.9751V1.96768C85.2644 2.80893 83.5486 8.1268 81.6545 10.6806C81.1197 11.642 73.7441 18.7926 70.1231 22.2477C65.1762 26.8145 58.8144 31.5615 56.2519 33.3642V11.8824Z" fill="#D1A028" stroke="#D1A028"/>
<path d="M2.92681 78.04C2.92681 77.224 2.81481 76.624 2.59081 76.24C2.36681 75.84 1.91881 75.64 1.24681 75.64H0.766813V75.16H7.05481C10.1588 75.16 12.5028 75.848 14.0868 77.224C15.6868 78.6 16.4868 80.52 16.4868 82.984C16.4868 84.568 16.1508 85.968 15.4788 87.184C14.8068 88.384 13.8068 89.32 12.4788 89.992C11.1668 90.664 9.56681 91 7.67881 91H2.92681V78.04ZM7.60681 90.16C8.79081 90.16 9.85481 89.872 10.7988 89.296C11.7588 88.704 12.5108 87.88 13.0548 86.824C13.5988 85.752 13.8708 84.504 13.8708 83.08C13.8708 81.688 13.5988 80.456 13.0548 79.384C12.5268 78.312 11.7828 77.48 10.8228 76.888C9.86281 76.296 8.77481 76 7.55881 76C6.79081 76 5.99081 76.128 5.15881 76.384V89.848C6.05481 90.056 6.87081 90.16 7.60681 90.16ZM21.9551 91.24C21.4431 91.24 20.9231 91.136 20.3951 90.928C19.8671 90.704 19.4111 90.344 19.0271 89.848C18.6591 89.352 18.4751 88.696 18.4751 87.88C18.4751 86.664 19.0351 85.8 20.1551 85.288C21.2911 84.776 22.7711 84.52 24.5951 84.52H25.3151C25.3151 82.952 25.0991 81.88 24.6671 81.304C24.2351 80.728 23.6111 80.44 22.7951 80.44C22.0751 80.44 21.4991 80.592 21.0671 80.896C20.6351 81.2 20.3311 81.728 20.1551 82.48H19.0751C19.0751 81.936 19.1071 81.512 19.1711 81.208C19.2351 80.888 19.4031 80.592 19.6751 80.32C19.9631 80.032 20.4351 79.824 21.0911 79.696C21.7631 79.552 22.4911 79.48 23.2751 79.48C24.5711 79.48 25.5951 79.832 26.3471 80.536C27.0991 81.224 27.4751 82.552 27.4751 84.52V91H26.2751L25.4351 89.92H25.3151C25.0271 90.288 24.6031 90.6 24.0431 90.856C23.4831 91.112 22.7871 91.24 21.9551 91.24ZM23.0351 90.16C23.5631 90.16 24.0031 90.032 24.3551 89.776C24.7071 89.52 25.0271 89.168 25.3151 88.72V85.48H24.5951C23.4111 85.48 22.4751 85.704 21.7871 86.152C21.0991 86.584 20.7551 87.16 20.7551 87.88C20.7551 88.616 20.9711 89.184 21.4031 89.584C21.8511 89.968 22.3951 90.16 23.0351 90.16ZM31.0138 82.6C31.0138 81.784 30.9018 81.184 30.6777 80.8C30.4538 80.4 30.0058 80.2 29.3338 80.2H29.0938V79.72H31.0138C31.6218 79.72 32.0778 79.808 32.3818 79.984C32.7018 80.144 32.9258 80.416 33.0538 80.8H33.1738C33.4618 80.432 33.8458 80.12 34.3258 79.864C34.8218 79.608 35.3978 79.48 36.0538 79.48C36.6938 79.48 37.1738 79.6 37.4938 79.84C37.7658 80.048 38.0458 80.408 38.3338 80.92L37.3738 81.64C37.1978 81.4 36.9418 81.224 36.6058 81.112C36.2698 80.984 35.8858 80.92 35.4538 80.92C34.9738 80.92 34.5338 81.032 34.1338 81.256C33.7338 81.464 33.4138 81.752 33.1738 82.12V91H31.0138V82.6ZM48.8808 91.24C47.5208 91.24 46.3608 90.6 45.4008 89.32L42.5208 85.48V91H40.3608V78.04C40.3608 77.224 40.2488 76.624 40.0248 76.24C39.8008 75.84 39.3528 75.64 38.6808 75.64H38.2008V75.16H40.3608C40.9528 75.16 41.3928 75.24 41.6808 75.4C41.9848 75.544 42.2008 75.816 42.3288 76.216C42.4568 76.616 42.5208 77.224 42.5208 78.04V85.12L45.5208 81.28C45.9368 80.768 46.3768 80.384 46.8408 80.128C47.3048 79.856 47.9048 79.72 48.6408 79.72H49.3608V80.32C48.9288 80.32 48.5128 80.408 48.1128 80.584C47.7128 80.76 47.3688 81.032 47.0808 81.4L44.4408 84.76L47.4408 88.6C47.9048 89.208 48.3368 89.664 48.7368 89.968C49.1528 90.272 49.6008 90.464 50.0808 90.544V91C49.7288 91.16 49.3288 91.24 48.8808 91.24ZM71.1853 91.24C70.4333 91.24 69.6493 91.04 68.8333 90.64C68.0173 90.224 67.0813 89.464 66.0253 88.36L60.9853 83.08V91H58.8253V78.04C58.8253 77.224 58.7133 76.624 58.4893 76.24C58.2653 75.84 57.8173 75.64 57.1453 75.64H56.6653V75.16H58.8253C59.4173 75.16 59.8573 75.24 60.1453 75.4C60.4493 75.544 60.6653 75.816 60.7933 76.216C60.9213 76.616 60.9853 77.224 60.9853 78.04V82.72L66.0253 77.68L66.5053 77.176C66.9533 76.712 67.3293 76.352 67.6333 76.096C67.9373 75.824 68.2973 75.6 68.7133 75.424C69.1293 75.248 69.5933 75.16 70.1053 75.16H71.3053V75.76C70.6333 75.76 70.0493 75.88 69.5533 76.12C69.0573 76.344 68.4813 76.784 67.8253 77.44L63.1453 82.12L68.6653 87.88C69.3693 88.6 70.0813 89.208 70.8013 89.704C71.5213 90.184 72.1693 90.464 72.7453 90.544V91C72.2653 91.16 71.7453 91.24 71.1853 91.24ZM75.5234 78.28C75.1554 78.28 74.8354 78.128 74.5634 77.824C74.3074 77.52 74.1794 77.16 74.1794 76.744C74.1794 76.408 74.2754 76.144 74.4674 75.952C74.6754 75.76 74.9474 75.664 75.2834 75.664C75.6514 75.664 75.9634 75.816 76.2194 76.12C76.4914 76.424 76.6274 76.784 76.6274 77.2C76.6274 77.536 76.5234 77.8 76.3154 77.992C76.1234 78.184 75.8594 78.28 75.5234 78.28ZM74.6114 82.6C74.6114 81.784 74.4994 81.184 74.2754 80.8C74.0514 80.4 73.6034 80.2 72.9314 80.2H72.4514V79.72H74.6114C75.2034 79.72 75.6434 79.8 75.9314 79.96C76.2354 80.104 76.4514 80.376 76.5794 80.776C76.7074 81.176 76.7714 81.784 76.7714 82.6V91H74.6114V82.6ZM83.4937 91.24C82.5977 91.24 81.8937 90.984 81.3817 90.472C80.8697 89.96 80.6137 89.176 80.6137 88.12V80.68H78.9337V79.72H80.6137V77.56L81.8137 76.12H82.7737V79.72H85.6537V80.68H82.7737V88.12C82.7737 89.56 83.3337 90.28 84.4537 90.28C84.8377 90.28 85.1577 90.24 85.4137 90.16C85.6857 90.08 85.9657 89.96 86.2537 89.8L86.4937 90.28C86.1257 90.552 85.7177 90.784 85.2697 90.976C84.8217 91.152 84.2297 91.24 83.4937 91.24ZM92.8991 91.24C91.7471 91.24 90.7711 90.984 89.9711 90.472C89.1871 89.944 88.5951 89.24 88.1951 88.36C87.8111 87.464 87.6191 86.464 87.6191 85.36C87.6191 84.256 87.8111 83.264 88.1951 82.384C88.5951 81.488 89.1871 80.784 89.9711 80.272C90.7711 79.744 91.7471 79.48 92.8991 79.48C94.6591 79.48 95.8191 79.76 96.3791 80.32C96.6511 80.592 96.8191 80.928 96.8831 81.328C96.9471 81.712 96.9791 82.416 96.9791 83.44H96.4991C96.4351 82.448 96.1231 81.704 95.5631 81.208C95.0031 80.696 94.2751 80.44 93.3791 80.44C92.2271 80.44 91.3551 80.896 90.7631 81.808C90.1871 82.72 89.8991 83.904 89.8991 85.36C89.8991 86.816 90.1871 88 90.7631 88.912C91.3551 89.824 92.2271 90.28 93.3791 90.28C94.1951 90.28 94.8671 90.128 95.3951 89.824C95.9231 89.504 96.4111 89.016 96.8591 88.36L97.3391 88.72C96.8111 89.616 96.1871 90.264 95.4671 90.664C94.7471 91.048 93.8911 91.24 92.8991 91.24ZM99.8686 78.04C99.8686 77.224 99.7566 76.624 99.5326 76.24C99.3086 75.84 98.8606 75.64 98.1886 75.64H97.7086V75.16H99.8686C100.461 75.16 100.901 75.24 101.189 75.4C101.493 75.544 101.709 75.816 101.837 76.216C101.965 76.616 102.029 77.224 102.029 78.04V80.68C102.365 80.344 102.797 80.064 103.325 79.84C103.869 79.6 104.477 79.48 105.149 79.48C106.349 79.48 107.325 79.8 108.077 80.44C108.845 81.08 109.229 82.2 109.229 83.8V91H107.069V83.8C107.069 82.68 106.813 81.864 106.301 81.352C105.805 80.824 105.181 80.56 104.429 80.56C103.581 80.56 102.781 80.984 102.029 81.832V91H99.8686V78.04ZM116.964 91.24C115.876 91.24 114.956 90.984 114.204 90.472C113.452 89.944 112.884 89.24 112.5 88.36C112.116 87.464 111.924 86.464 111.924 85.36C111.924 84.272 112.116 83.28 112.5 82.384C112.884 81.488 113.436 80.784 114.156 80.272C114.892 79.744 115.748 79.48 116.724 79.48C118.34 79.48 119.54 79.936 120.324 80.848C121.124 81.744 121.524 83.048 121.524 84.76L121.476 85.72H114.204C114.204 87.064 114.492 88.16 115.068 89.008C115.644 89.856 116.436 90.28 117.444 90.28C118.196 90.28 118.828 90.12 119.34 89.8C119.868 89.48 120.356 89 120.804 88.36L121.284 88.72C120.756 89.6 120.14 90.24 119.436 90.64C118.732 91.04 117.908 91.24 116.964 91.24ZM119.244 84.76C119.244 83.352 119.036 82.28 118.62 81.544C118.204 80.808 117.572 80.44 116.724 80.44C116.244 80.44 115.812 80.632 115.428 81.016C115.044 81.384 114.74 81.896 114.516 82.552C114.308 83.208 114.204 83.944 114.204 84.76H119.244ZM124.651 82.6C124.651 81.784 124.539 81.184 124.315 80.8C124.091 80.4 123.643 80.2 122.971 80.2H122.49V79.72H124.651C125.243 79.72 125.691 79.8 125.995 79.96C126.315 80.12 126.547 80.36 126.691 80.68H126.811C127.147 80.344 127.579 80.064 128.107 79.84C128.651 79.6 129.259 79.48 129.931 79.48C131.131 79.48 132.107 79.8 132.859 80.44C133.627 81.08 134.011 82.2 134.011 83.8V91H131.851V83.8C131.851 82.68 131.595 81.864 131.083 81.352C130.587 80.824 129.963 80.56 129.211 80.56C128.363 80.56 127.563 80.984 126.811 81.832V91H124.651V82.6Z" fill="#D1A028"/>
</svg>
