<svg width="94" height="64" viewBox="0 0 94 64" fill="none" xmlns="http://www.w3.org/2000/svg">
<path d="M25.0187 1.044V1.54211C30.3784 2.17969 31.3333 4.72999 31.1408 5.92545H17.3949V6.42355C21.2761 6.58295 22.2464 8.88088 22.2464 10.0099V31.9266C22.2464 34.3175 22.0385 34.716 21.8999 35.0148C21.1606 36.6088 18.473 37.1401 17.2794 37.2065V37.8042H31.1408C31.1408 41.0718 26.9054 42.0215 24.7876 42.088V42.6857H46.2727V42.088C40.0813 41.6895 38.9955 38.9333 39.2266 37.605C44.7711 37.3659 49.0065 35.3137 50.4311 34.3175L47.6589 31.827C43.9625 35.5727 39.99 36.6143 38.418 36.808C36.4774 37.0471 33.682 36.9076 32.5269 36.808C28.5995 36.4693 28.484 33.6201 28.3685 31.9266V7.02128C33.0814 6.22431 37.5709 6.75562 39.2266 7.1209C44.1242 8.07726 47.5049 11.9027 48.583 13.6959L52.0483 10.4084C47.7975 6.74234 41.7293 5.89224 39.2266 5.92545C39.8734 2.33908 43.8855 1.5089 45.8107 1.54211V1.044C45.7183 0.964308 31.9108 1.0108 25.0187 1.044Z" fill="#D1A028" stroke="#D1A028"/>
<path d="M38.8801 8.21674C36.385 7.57916 32.912 7.75184 31.4873 7.91787L31.3718 35.6126C35.5302 36.2502 38.11 35.7454 38.8801 35.4133L38.7645 25.0527C38.7645 22.363 40.3817 23.0603 41.3058 23.9569L60.4807 42.6857H75.8437V41.9883C71.0384 42.068 67.5268 39.4978 66.2562 38.402L45.9262 18.8762L49.6226 15.6883C50.3727 16.3259 50.7822 20.2709 50.8932 22.1637L56.3223 27.2444C58.7249 19.8326 55.6292 13.9948 53.781 12.0023C64.0384 2.83719 69.6061 1.27646 71.1077 1.64173V1.04401H53.2035V1.64173C58.9328 2.19961 57.7469 5.72621 56.4378 7.41977C56.0681 8.05734 50.9702 12.7993 48.4675 15.0906C45.0484 18.1191 40.6512 21.2671 38.8801 22.4626V8.21674Z" fill="#D1A028" stroke="#D1A028"/>
<path d="M9.04064 51.1979C9.04064 50.7219 8.97531 50.3719 8.84464 50.1479C8.71397 49.9145 8.45264 49.7979 8.06064 49.7979H7.78064V49.5179H11.4486C13.2593 49.5179 14.6266 49.9192 15.5506 50.7219C16.484 51.5245 16.9506 52.6445 16.9506 54.0819C16.9506 55.0059 16.7546 55.8225 16.3626 56.5319C15.9706 57.2319 15.3873 57.7779 14.6126 58.1699C13.8473 58.5619 12.914 58.7579 11.8126 58.7579H9.04064V51.1979ZM11.7706 58.2679C12.4613 58.2679 13.082 58.0999 13.6326 57.7639C14.1926 57.4185 14.6313 56.9379 14.9486 56.3219C15.266 55.6965 15.4246 54.9685 15.4246 54.1379C15.4246 53.3259 15.266 52.6072 14.9486 51.9819C14.6406 51.3565 14.2066 50.8712 13.6466 50.5259C13.0866 50.1805 12.452 50.0079 11.7426 50.0079C11.2946 50.0079 10.828 50.0825 10.3426 50.2319V58.0859C10.8653 58.2072 11.3413 58.2679 11.7706 58.2679ZM20.1405 58.8979C19.8418 58.8979 19.5385 58.8372 19.2305 58.7159C18.9225 58.5852 18.6565 58.3752 18.4325 58.0859C18.2178 57.7965 18.1105 57.4139 18.1105 56.9379C18.1105 56.2285 18.4371 55.7245 19.0905 55.4259C19.7531 55.1272 20.6165 54.9779 21.6805 54.9779H22.1005C22.1005 54.0632 21.9745 53.4379 21.7225 53.1019C21.4705 52.7659 21.1065 52.5979 20.6305 52.5979C20.2105 52.5979 19.8745 52.6865 19.6225 52.8639C19.3705 53.0412 19.1931 53.3492 19.0905 53.7879H18.4605C18.4605 53.4705 18.4791 53.2232 18.5165 53.0459C18.5538 52.8592 18.6518 52.6865 18.8105 52.5279C18.9785 52.3599 19.2538 52.2385 19.6365 52.1639C20.0285 52.0799 20.4531 52.0379 20.9105 52.0379C21.6665 52.0379 22.2638 52.2432 22.7025 52.6539C23.1411 53.0552 23.3605 53.8299 23.3605 54.9779V58.7579H22.6605L22.1705 58.1279H22.1005C21.9325 58.3425 21.6851 58.5245 21.3585 58.6739C21.0318 58.8232 20.6258 58.8979 20.1405 58.8979ZM20.7705 58.2679C21.0785 58.2679 21.3351 58.1932 21.5405 58.0439C21.7458 57.8945 21.9325 57.6892 22.1005 57.4279V55.5379H21.6805C20.9898 55.5379 20.4438 55.6685 20.0425 55.9299C19.6411 56.1819 19.4405 56.5179 19.4405 56.9379C19.4405 57.3672 19.5665 57.6985 19.8185 57.9319C20.0798 58.1559 20.3971 58.2679 20.7705 58.2679ZM25.4247 53.8579C25.4247 53.3819 25.3594 53.0319 25.2287 52.8079C25.098 52.5745 24.8367 52.4579 24.4447 52.4579H24.3047V52.1779H25.4247C25.7794 52.1779 26.0454 52.2292 26.2227 52.3319C26.4094 52.4252 26.54 52.5839 26.6147 52.8079H26.6847C26.8527 52.5932 27.0767 52.4112 27.3567 52.2619C27.646 52.1125 27.982 52.0379 28.3647 52.0379C28.738 52.0379 29.018 52.1079 29.2047 52.2479C29.3634 52.3692 29.5267 52.5792 29.6947 52.8779L29.1347 53.2979C29.032 53.1579 28.8827 53.0552 28.6867 52.9899C28.4907 52.9152 28.2667 52.8779 28.0147 52.8779C27.7347 52.8779 27.478 52.9432 27.2447 53.0739C27.0114 53.1952 26.8247 53.3632 26.6847 53.5779V58.7579H25.4247V53.8579ZM35.8471 58.8979C35.0538 58.8979 34.3771 58.5245 33.8171 57.7779L32.1371 55.5379V58.7579H30.8771V51.1979C30.8771 50.7219 30.8118 50.3719 30.6811 50.1479C30.5505 49.9145 30.2891 49.7979 29.8971 49.7979H29.6171V49.5179H30.8771C31.2225 49.5179 31.4791 49.5645 31.6471 49.6579C31.8245 49.7419 31.9505 49.9005 32.0251 50.1339C32.0998 50.3672 32.1371 50.7219 32.1371 51.1979V55.3279L33.8871 53.0879C34.1298 52.7892 34.3865 52.5652 34.6571 52.4159C34.9278 52.2572 35.2778 52.1779 35.7071 52.1779H36.1271V52.5279C35.8751 52.5279 35.6325 52.5792 35.3991 52.6819C35.1658 52.7845 34.9651 52.9432 34.7971 53.1579L33.2571 55.1179L35.0071 57.3579C35.2778 57.7125 35.5298 57.9785 35.7631 58.1559C36.0058 58.3332 36.2671 58.4452 36.5471 58.4919V58.7579C36.3418 58.8512 36.1085 58.8979 35.8471 58.8979ZM48.8581 58.8979C48.4194 58.8979 47.9621 58.7812 47.4861 58.5479C47.0101 58.3052 46.4641 57.8619 45.8481 57.2179L42.9081 54.1379V58.7579H41.6481V51.1979C41.6481 50.7219 41.5827 50.3719 41.4521 50.1479C41.3214 49.9145 41.0601 49.7979 40.6681 49.7979H40.3881V49.5179H41.6481C41.9934 49.5179 42.2501 49.5645 42.4181 49.6579C42.5954 49.7419 42.7214 49.9005 42.7961 50.1339C42.8707 50.3672 42.9081 50.7219 42.9081 51.1979V53.9279L45.8481 50.9879L46.1281 50.6939C46.3894 50.4232 46.6087 50.2132 46.7861 50.0639C46.9634 49.9052 47.1734 49.7745 47.4161 49.6719C47.6587 49.5692 47.9294 49.5179 48.2281 49.5179H48.9281V49.8679C48.5361 49.8679 48.1954 49.9379 47.9061 50.0779C47.6167 50.2085 47.2807 50.4652 46.8981 50.8479L44.1681 53.5779L47.3881 56.9379C47.7987 57.3579 48.2141 57.7125 48.6341 58.0019C49.0541 58.2819 49.4321 58.4452 49.7681 58.4919V58.7579C49.4881 58.8512 49.1847 58.8979 48.8581 58.8979ZM51.3887 51.3379C51.174 51.3379 50.9873 51.2492 50.8287 51.0719C50.6793 50.8945 50.6047 50.6845 50.6047 50.4419C50.6047 50.2459 50.6607 50.0919 50.7727 49.9799C50.894 49.8679 51.0527 49.8119 51.2487 49.8119C51.4633 49.8119 51.6453 49.9005 51.7947 50.0779C51.9533 50.2552 52.0327 50.4652 52.0327 50.7079C52.0327 50.9039 51.972 51.0579 51.8507 51.1699C51.7387 51.2819 51.5847 51.3379 51.3887 51.3379ZM50.8567 53.8579C50.8567 53.3819 50.7913 53.0319 50.6607 52.8079C50.53 52.5745 50.2687 52.4579 49.8767 52.4579H49.5967V52.1779H50.8567C51.202 52.1779 51.4587 52.2245 51.6267 52.3179C51.804 52.4019 51.93 52.5605 52.0047 52.7939C52.0793 53.0272 52.1167 53.3819 52.1167 53.8579V58.7579H50.8567V53.8579ZM56.038 58.8979C55.5153 58.8979 55.1047 58.7485 54.806 58.4499C54.5073 58.1512 54.358 57.6939 54.358 57.0779V52.7379H53.378V52.1779H54.358V50.9179L55.058 50.0779H55.618V52.1779H57.298V52.7379H55.618V57.0779C55.618 57.9179 55.9447 58.3379 56.598 58.3379C56.822 58.3379 57.0087 58.3145 57.158 58.2679C57.3167 58.2212 57.48 58.1512 57.648 58.0579L57.788 58.3379C57.5733 58.4965 57.3353 58.6319 57.074 58.7439C56.8127 58.8465 56.4673 58.8979 56.038 58.8979ZM61.5245 58.8979C60.8525 58.8979 60.2831 58.7485 59.8165 58.4499C59.3591 58.1419 59.0138 57.7312 58.7805 57.2179C58.5565 56.6952 58.4445 56.1119 58.4445 55.4679C58.4445 54.8239 58.5565 54.2452 58.7805 53.7319C59.0138 53.2092 59.3591 52.7985 59.8165 52.4999C60.2831 52.1919 60.8525 52.0379 61.5245 52.0379C62.5511 52.0379 63.2278 52.2012 63.5545 52.5279C63.7131 52.6865 63.8111 52.8825 63.8485 53.1159C63.8858 53.3399 63.9045 53.7505 63.9045 54.3479H63.6245C63.5871 53.7692 63.4051 53.3352 63.0785 53.0459C62.7518 52.7472 62.3271 52.5979 61.8045 52.5979C61.1325 52.5979 60.6238 52.8639 60.2785 53.3959C59.9425 53.9279 59.7745 54.6185 59.7745 55.4679C59.7745 56.3172 59.9425 57.0079 60.2785 57.5399C60.6238 58.0719 61.1325 58.3379 61.8045 58.3379C62.2805 58.3379 62.6725 58.2492 62.9805 58.0719C63.2885 57.8852 63.5731 57.6005 63.8345 57.2179L64.1145 57.4279C63.8065 57.9505 63.4425 58.3285 63.0225 58.5619C62.6025 58.7859 62.1031 58.8979 61.5245 58.8979ZM65.59 51.1979C65.59 50.7219 65.5247 50.3719 65.394 50.1479C65.2634 49.9145 65.002 49.7979 64.61 49.7979H64.33V49.5179H65.59C65.9354 49.5179 66.192 49.5645 66.36 49.6579C66.5374 49.7419 66.6634 49.9005 66.738 50.1339C66.8127 50.3672 66.85 50.7219 66.85 51.1979V52.7379C67.046 52.5419 67.298 52.3785 67.606 52.2479C67.9234 52.1079 68.278 52.0379 68.67 52.0379C69.37 52.0379 69.9394 52.2245 70.378 52.5979C70.826 52.9712 71.05 53.6245 71.05 54.5579V58.7579H69.79V54.5579C69.79 53.9045 69.6407 53.4285 69.342 53.1299C69.0527 52.8219 68.6887 52.6679 68.25 52.6679C67.7554 52.6679 67.2887 52.9152 66.85 53.4099V58.7579H65.59V51.1979ZM75.5622 58.8979C74.9275 58.8979 74.3909 58.7485 73.9522 58.4499C73.5135 58.1419 73.1822 57.7312 72.9582 57.2179C72.7342 56.6952 72.6222 56.1119 72.6222 55.4679C72.6222 54.8332 72.7342 54.2545 72.9582 53.7319C73.1822 53.2092 73.5042 52.7985 73.9242 52.4999C74.3535 52.1919 74.8529 52.0379 75.4222 52.0379C76.3649 52.0379 77.0649 52.3039 77.5222 52.8359C77.9889 53.3585 78.2222 54.1192 78.2222 55.1179L78.1942 55.6779H73.9522C73.9522 56.4619 74.1202 57.1012 74.4562 57.5959C74.7922 58.0905 75.2542 58.3379 75.8422 58.3379C76.2809 58.3379 76.6495 58.2445 76.9482 58.0579C77.2562 57.8712 77.5409 57.5912 77.8022 57.2179L78.0822 57.4279C77.7742 57.9412 77.4149 58.3145 77.0042 58.5479C76.5935 58.7812 76.1129 58.8979 75.5622 58.8979ZM76.8922 55.1179C76.8922 54.2965 76.7709 53.6712 76.5282 53.2419C76.2855 52.8125 75.9169 52.5979 75.4222 52.5979C75.1422 52.5979 74.8902 52.7099 74.6662 52.9339C74.4422 53.1485 74.2649 53.4472 74.1342 53.8299C74.0129 54.2125 73.9522 54.6419 73.9522 55.1179H76.8922ZM80.0461 53.8579C80.0461 53.3819 79.9808 53.0319 79.8501 52.8079C79.7195 52.5745 79.4581 52.4579 79.0661 52.4579H78.7861V52.1779H80.0461C80.3915 52.1779 80.6528 52.2245 80.8301 52.3179C81.0168 52.4112 81.1521 52.5512 81.2361 52.7379H81.3061C81.5021 52.5419 81.7541 52.3785 82.0621 52.2479C82.3795 52.1079 82.7341 52.0379 83.1261 52.0379C83.8261 52.0379 84.3955 52.2245 84.8341 52.5979C85.2821 52.9712 85.5061 53.6245 85.5061 54.5579V58.7579H84.2461V54.5579C84.2461 53.9045 84.0968 53.4285 83.7981 53.1299C83.5088 52.8219 83.1448 52.6679 82.7061 52.6679C82.2115 52.6679 81.7448 52.9152 81.3061 53.4099V58.7579H80.0461V53.8579Z" fill="#D1A028"/>
</svg>
