<svg width="23" height="17" viewBox="0 0 23 17" fill="none" xmlns="http://www.w3.org/2000/svg">
<path fill-rule="evenodd" clip-rule="evenodd" d="M12.4516 3.89056C13.6758 4.20607 14.375 5.17016 14.375 6.61115C14.375 7.13275 13.9459 7.55559 13.4167 7.55559C12.8874 7.55559 12.4583 7.13275 12.4583 6.61115C12.4583 5.87349 12.2485 5.6667 11.5 5.6667C10.7515 5.6667 10.5417 5.87349 10.5417 6.61115C10.5417 6.87666 10.8316 7.11474 11.9286 7.6553C13.7066 8.53141 14.375 9.08036 14.375 10.3889C14.375 11.8299 13.6758 12.794 12.4516 13.1095C12.456 13.1465 12.4583 13.1841 12.4583 13.2223C12.4583 13.7439 12.0293 14.1667 11.5 14.1667C10.9707 14.1667 10.5417 13.7439 10.5417 13.2223C10.5417 13.1841 10.544 13.1465 10.5484 13.1095C9.32421 12.794 8.625 11.8299 8.625 10.3889C8.625 9.86732 9.05406 9.44448 9.58333 9.44448C10.1126 9.44448 10.5417 9.86732 10.5417 10.3889C10.5417 11.1266 10.7515 11.3334 11.5 11.3334C12.2485 11.3334 12.4583 11.1266 12.4583 10.3889C12.4583 10.1234 12.1684 9.88532 11.0714 9.34477C9.29343 8.46866 8.625 7.91971 8.625 6.61115C8.625 5.17016 9.32421 4.20607 10.5484 3.89056C10.544 3.85359 10.5417 3.81597 10.5417 3.77781C10.5417 3.25621 10.9707 2.83337 11.5 2.83337C12.0293 2.83337 12.4583 3.25621 12.4583 3.77781C12.4583 3.81597 12.456 3.85359 12.4516 3.89056V3.89056ZM1.91667 0H21.0833C22.1419 0 23 0.845684 23 1.88889V15.1111C23 16.1543 22.1419 17 21.0833 17H1.91667C0.858121 17 0 16.1543 0 15.1111V1.88889C0 0.845684 0.858121 0 1.91667 0ZM1.91665 1.88884V15.1111H21.0833V1.88884H1.91665Z" fill="#918E85"/>
</svg>
