<svg width="32" height="20" viewBox="0 0 32 20" fill="none" xmlns="http://www.w3.org/2000/svg">
<path fill-rule="evenodd" clip-rule="evenodd" d="M17.3239 4.57709C19.0272 4.94828 20 6.0825 20 7.77778C20 8.39143 19.403 8.88889 18.6667 8.88889C17.9303 8.88889 17.3333 8.39143 17.3333 7.77778C17.3333 6.90995 17.0414 6.66667 16 6.66667C14.9586 6.66667 14.6667 6.90995 14.6667 7.77778C14.6667 8.09014 15.07 8.37025 16.5963 9.00619C19.07 10.0369 20 10.6827 20 12.2222C20 13.9175 19.0272 15.0517 17.3239 15.4229C17.3301 15.4664 17.3333 15.5107 17.3333 15.5556C17.3333 16.1692 16.7364 16.6667 16 16.6667C15.2636 16.6667 14.6667 16.1692 14.6667 15.5556C14.6667 15.5107 14.6699 15.4664 14.6761 15.4229C12.9728 15.0517 12 13.9175 12 12.2222C12 11.6086 12.597 11.1111 13.3333 11.1111C14.0697 11.1111 14.6667 11.6086 14.6667 12.2222C14.6667 13.0901 14.9586 13.3333 16 13.3333C17.0414 13.3333 17.3333 13.0901 17.3333 12.2222C17.3333 11.9099 16.93 11.6298 15.4037 10.9938C12.93 9.96309 12 9.31726 12 7.77778C12 6.0825 12.9728 4.94828 14.6761 4.57709C14.6699 4.5336 14.6667 4.48933 14.6667 4.44444C14.6667 3.83079 15.2636 3.33333 16 3.33333C16.7364 3.33333 17.3333 3.83079 17.3333 4.44444C17.3333 4.48933 17.3301 4.5336 17.3239 4.57709ZM2.66667 0H29.3333C30.8061 0 32 0.994923 32 2.22222V17.7778C32 19.0051 30.8061 20 29.3333 20H2.66667C1.19391 20 0 19.0051 0 17.7778V2.22222C0 0.994923 1.19391 0 2.66667 0ZM2.66663 2.22217V17.7777H29.3333V2.22217H2.66663Z" fill="#918E85"/>
</svg>
