<svg width="62" height="58" viewBox="0 0 62 58" fill="none" xmlns="http://www.w3.org/2000/svg">
<path d="M33.8822 4.33332C36.3264 4.33332 37.4082 4.33533 38.3003 4.41034C48.2188 5.24438 56.0794 12.6271 56.9675 21.9426C57.0474 22.7805 57.0495 23.7965 57.0495 26.0921V28.732C57.0495 29.8365 58.0029 30.732 59.1789 30.732C60.355 30.732 61.3084 29.8365 61.3084 28.732V25.9576C61.3085 23.8325 61.3085 22.6249 61.2094 21.5859C60.1377 10.343 50.6507 1.43288 38.6801 0.426281C37.5738 0.333251 36.288 0.333274 34.0252 0.333315H31.0715C29.8954 0.333315 28.942 1.22875 28.942 2.33332C28.942 3.43789 29.8954 4.33332 31.0715 4.33332L33.8822 4.33332Z" fill="black"/>
<path d="M17.1922 7.73411C14.2051 5.15616 9.6135 5.15616 6.62632 7.73411C6.504 7.83968 6.37341 7.96236 6.20383 8.12165L3.65556 10.515C1.09136 12.9233 0.0149339 16.3951 0.801594 19.7198C5.26486 38.5835 20.9506 53.3156 41.0353 57.5075C44.5753 58.2463 48.2718 57.2353 50.836 54.827L53.384 52.434C53.5537 52.2746 53.6844 52.1518 53.7969 52.0369C56.5417 49.2313 56.5417 44.9189 53.7969 42.1133C53.6844 41.9984 53.5538 41.8757 53.384 41.7163L49.2123 37.7982C46.316 35.078 41.942 34.3 38.1871 35.8372C36.0375 36.7172 33.5334 36.2718 31.8752 34.7145L25.07 28.323C23.4119 26.7657 22.9376 24.4138 23.8746 22.3949C25.5114 18.8683 24.683 14.7602 21.7867 12.0399L17.6148 8.12172C17.4452 7.96239 17.3146 7.8397 17.1922 7.73411Z" fill="black"/>
<path d="M33.0788 9.76141C31.9028 9.76141 30.9494 10.6568 30.9494 11.7614C30.9494 12.866 31.9028 13.7614 33.0788 13.7614H34.685C34.9327 13.7614 35.0341 13.7615 35.1166 13.7626C41.6458 13.8504 46.916 18.8002 47.0095 24.9324C47.0107 25.01 47.0108 25.1052 47.0108 25.3379V26.8463C47.0108 27.9509 47.9642 28.8463 49.1402 28.8463C50.3163 28.8463 51.2697 27.9509 51.2697 26.8463V25.3185C51.2697 25.1113 51.2697 24.9852 51.268 24.8752C51.1415 16.5786 44.0112 9.8818 35.1776 9.76298C35.0605 9.7614 34.9262 9.7614 34.7055 9.76141H33.0788Z" fill="black"/>
</svg>
