<svg width="22" height="23" viewBox="0 0 22 23" fill="none" xmlns="http://www.w3.org/2000/svg">
<path d="M21.8686 2.20597L19.7972 0.131565C19.622 -0.043855 19.338 -0.043855 19.1628 0.131565L13.3768 5.926C12.5281 5.40293 11.5443 5.11915 10.5167 5.11915C8.92451 5.11915 7.43769 5.80021 6.3954 6.99725C6.10177 6.94824 5.80033 6.92277 5.49306 6.92277C2.52292 6.92277 0.0978325 9.3048 0.0226975 12.2615C0.00798452 12.306 0 12.3535 0 12.4029C0 13.2421 0.101062 14.0639 0.30045 14.8456C0.655222 16.2365 1.31852 17.5086 2.2719 18.6265C3.12068 19.6217 4.17921 20.4726 5.42107 21.1584V22.5508C5.42107 22.7989 5.62189 23 5.86964 23H15.1636C15.4114 23 15.6122 22.7989 15.6122 22.5508V21.1584C16.8541 20.4726 17.9126 19.6217 18.7614 18.6265C19.7148 17.5086 20.3781 16.2365 20.7329 14.8456C20.9323 14.0639 21.0333 13.242 21.0333 12.4029C21.0333 12.3535 21.0253 12.3059 21.0106 12.2614C20.9524 9.97292 19.4864 8.02866 17.4494 7.26683L21.8686 2.84125C22.0438 2.66583 22.0438 2.38139 21.8686 2.20597ZM19.48 1.08449L19.8814 1.48641L14.5149 6.86064C14.3851 6.72111 14.249 6.58918 14.1073 6.4651L19.48 1.08449ZM10.5167 6.01764C11.4723 6.01764 12.3827 6.31138 13.1428 6.8477C13.1619 6.86392 13.182 6.87825 13.2028 6.89078C13.3577 7.00385 13.506 7.12707 13.647 7.26013C13.3374 7.3741 13.041 7.51511 12.7604 7.6806C12.1194 7.18534 11.335 6.91603 10.5166 6.91603C9.6982 6.91603 8.91384 7.18534 8.27284 7.6806C7.9923 7.51511 7.6958 7.3741 7.38629 7.26013C8.23009 6.46367 9.33903 6.01764 10.5167 6.01764ZM10.5167 8.71295C10.2331 8.71295 9.95451 8.77755 9.70184 8.89911C9.50267 8.65868 9.28373 8.43637 9.0476 8.23426C9.48504 7.96109 9.99157 7.81451 10.5166 7.81451C11.0417 7.81451 11.5482 7.96114 11.9857 8.23426C11.7496 8.43632 11.5307 8.65868 11.3315 8.89911C11.0788 8.77755 10.8002 8.71295 10.5167 8.71295ZM10.8056 9.65496C10.7133 9.8147 10.6285 9.97988 10.5519 10.15H10.4814C10.4048 9.97988 10.3201 9.8147 10.2277 9.65496C10.3208 9.6263 10.4182 9.61139 10.5167 9.61139C10.6152 9.61139 10.7125 9.6263 10.8056 9.65496ZM5.49306 7.82125C6.43972 7.82125 7.32012 8.11068 8.05071 8.60581C8.05286 8.60734 8.05501 8.60887 8.05716 8.61035C8.12934 8.65945 8.19985 8.71039 8.26871 8.76308C8.27041 8.76439 8.27212 8.76569 8.27382 8.76699C8.28199 8.77324 8.2901 8.77957 8.29822 8.78586C8.65075 9.06065 9.22891 9.7612 9.23272 9.76641C9.44306 10.0647 9.61872 10.3892 9.75382 10.7339C9.75486 10.7365 9.75593 10.7392 9.75696 10.7419C9.9058 11.1238 10.0049 11.5304 10.0462 11.9536H9.14373C8.92178 10.1338 7.36924 8.7196 5.49306 8.7196C3.61689 8.7196 2.06435 10.1337 1.8424 11.9536H0.939838C1.16601 9.6374 3.12176 7.82125 5.49306 7.82125ZM5.49306 10.5165C4.60894 10.5165 3.86517 11.1297 3.6634 11.9537H2.74846C2.9635 10.6309 4.11237 9.61808 5.49302 9.61808C6.87366 9.61808 8.02258 10.6309 8.23762 11.9537H7.32273C7.12096 11.1297 6.37719 10.5165 5.49306 10.5165ZM6.37154 11.9537H4.61455C4.77814 11.6341 5.11053 11.415 5.49302 11.415C5.87551 11.415 6.20795 11.6341 6.37154 11.9537ZM14.9553 20.4922C14.8077 20.5698 14.7151 20.723 14.7151 20.89V22.1016H6.3182V21.3382H11.5122C11.7599 21.3382 11.9607 21.137 11.9607 20.8889C11.9607 20.6408 11.7599 20.4397 11.5122 20.4397H5.97927C3.65237 19.1908 2.0574 17.3835 1.33314 15.1836H19.7003C18.9657 17.4145 17.3359 19.2417 14.9553 20.4922ZM19.9425 14.2852H1.09083C0.992275 13.8201 0.931046 13.3405 0.907765 12.8521H20.1256C20.1024 13.3405 20.0411 13.8201 19.9425 14.2852ZM15.5403 10.5165C14.6561 10.5165 13.9124 11.1297 13.7106 11.9537H12.7956C13.0107 10.6309 14.1596 9.61808 15.5403 9.61808C16.9209 9.61808 18.0698 10.6309 18.2849 11.9537H17.3699C17.1681 11.1297 16.4244 10.5165 15.5403 10.5165ZM16.4188 11.9537H14.6618C14.8254 11.6341 15.1578 11.415 15.5403 11.415C15.9228 11.415 16.2552 11.6341 16.4188 11.9537ZM20.0935 11.9537H19.191C18.969 10.1338 17.4165 8.71964 15.5403 8.71964C13.6641 8.71964 12.1116 10.1338 11.8896 11.9537H10.9871C11.028 11.534 11.1258 11.1308 11.2725 10.7518C11.2755 10.744 11.2786 10.7362 11.2816 10.7284C11.2829 10.725 11.2843 10.7216 11.2856 10.7182C11.2868 10.7152 11.2881 10.7122 11.2893 10.7091C11.2923 10.7015 11.2953 10.694 11.2984 10.6864C11.301 10.6799 11.3036 10.6734 11.3063 10.667C11.3075 10.6639 11.3088 10.6608 11.3101 10.6577C11.4407 10.3415 11.6056 10.0429 11.8003 9.76677C11.8042 9.76147 11.808 9.75608 11.8117 9.75065C12.0713 9.38584 12.7514 8.77319 12.7595 8.76699C12.7612 8.76573 12.7629 8.76448 12.7645 8.76317C12.8334 8.71043 12.904 8.65949 12.9762 8.61035C12.9783 8.60887 12.9805 8.60734 12.9826 8.60581C13.471 8.27483 14.0263 8.03575 14.6236 7.91361L14.6255 7.91325C14.9211 7.85292 15.2271 7.82125 15.5403 7.82125C17.9116 7.82125 19.8674 9.6374 20.0935 11.9537ZM16.4488 6.99833C16.2103 6.95826 15.9666 6.93364 15.7188 6.92569L20.5158 2.12174L20.9171 2.52366L16.4488 6.99833Z" fill="#918E85"/>
</svg>
