<svg width="30" height="29" viewBox="0 0 30 29" fill="none" xmlns="http://www.w3.org/2000/svg">
<path d="M29.8208 2.78144L26.9962 0.165886C26.7573 -0.0552954 26.37 -0.0552954 26.1311 0.165886L18.241 7.47191C17.0837 6.81238 15.7422 6.45458 14.3409 6.45458C12.1698 6.45458 10.1423 7.31331 8.721 8.82262C8.32059 8.76082 7.90954 8.72871 7.49054 8.72871C3.44035 8.72871 0.133408 11.7321 0.0309512 15.4602C0.010888 15.5162 0 15.5762 0 15.6384C0 16.6965 0.137812 17.7328 0.409705 18.7183C0.893485 20.4721 1.79798 22.076 3.09805 23.4856C4.25548 24.7405 5.69892 25.8133 7.39237 26.678V28.4336C7.39237 28.7464 7.66622 29 8.00405 29H20.6777C21.0155 29 21.2894 28.7464 21.2894 28.4336V26.678C22.9828 25.8133 24.4263 24.7405 25.5837 23.4856C26.8838 22.076 27.7883 20.4721 28.2721 18.7183C28.544 17.7327 28.6818 16.6965 28.6818 15.6384C28.6818 15.5761 28.6709 15.5161 28.6508 15.4601C28.5715 12.5746 26.5723 10.1231 23.7947 9.16252L29.8208 3.58245C30.0597 3.36127 30.0597 3.00262 29.8208 2.78144ZM26.5637 1.3674L27.1109 1.87417L19.7931 8.65037C19.616 8.47445 19.4305 8.30809 19.2372 8.15165L26.5637 1.3674ZM14.3409 7.58745C15.644 7.58745 16.8855 7.95783 17.9221 8.63406C17.948 8.65451 17.9754 8.67258 18.0038 8.68838C18.215 8.83094 18.4173 8.98631 18.6095 9.15408C18.1874 9.29778 17.7831 9.47557 17.4005 9.68423C16.5264 9.05977 15.4569 8.72021 14.3408 8.72021C13.2248 8.72021 12.1552 9.05977 11.2811 9.68423C10.8986 9.47557 10.4943 9.29778 10.0722 9.15408C11.2228 8.14984 12.735 7.58745 14.3409 7.58745ZM14.3409 10.9859C13.9542 10.9859 13.5743 11.0673 13.2298 11.2206C12.9582 10.9175 12.6596 10.6372 12.3376 10.3823C12.9342 10.0379 13.6249 9.85308 14.3408 9.85308C15.0568 9.85308 15.7475 10.038 16.3441 10.3823C16.0222 10.6371 15.7237 10.9175 15.452 11.2206C15.1075 11.0673 14.7276 10.9859 14.3409 10.9859ZM14.7349 12.1736C14.6091 12.3751 14.4935 12.5833 14.3889 12.7979H14.2929C14.1883 12.5833 14.0728 12.3751 13.9469 12.1736C14.0738 12.1375 14.2066 12.1187 14.3409 12.1187C14.4753 12.1187 14.608 12.1375 14.7349 12.1736ZM7.49054 9.86158C8.78144 9.86158 9.98199 10.2265 10.9782 10.8508C10.9812 10.8527 10.9841 10.8547 10.987 10.8565C11.0855 10.9184 11.1816 10.9827 11.2755 11.0491C11.2778 11.0507 11.2802 11.0524 11.2825 11.054C11.2936 11.0619 11.3047 11.0699 11.3158 11.0778C11.7965 11.4243 12.5849 12.3076 12.5901 12.3142C12.8769 12.6903 13.1164 13.0994 13.3007 13.534C13.3021 13.5374 13.3035 13.5407 13.305 13.5441C13.5079 14.0256 13.643 14.5383 13.6994 15.0719H12.4687C12.1661 12.7774 10.049 10.9943 7.49054 10.9943C4.93212 10.9943 2.81502 12.7773 2.51236 15.0719H1.2816C1.59001 12.1515 4.25694 9.86158 7.49054 9.86158ZM7.49054 13.26C6.28492 13.26 5.27069 14.033 4.99555 15.072H3.7479C4.04114 13.4042 5.60778 12.1271 7.49048 12.1271C9.37318 12.1271 10.9399 13.4042 11.2331 15.072H9.98553C9.7104 14.0331 8.69617 13.26 7.49054 13.26ZM8.68846 15.072H6.29256C6.51564 14.6691 6.9689 14.3928 7.49048 14.3928C8.01206 14.3928 8.46538 14.6691 8.68846 15.072ZM20.3936 25.838C20.1923 25.9359 20.0661 26.1291 20.0661 26.3396V27.8672H8.61573V26.9046H15.6984C16.0362 26.9046 16.3101 26.6511 16.3101 26.3382C16.3101 26.0254 16.0362 25.7718 15.6984 25.7718H8.15355C4.9805 24.197 2.80554 21.9183 1.81792 19.1446H26.864C25.8624 21.9574 23.6399 24.2613 20.3936 25.838ZM27.1944 18.0118H1.48749C1.3531 17.4253 1.26961 16.8207 1.23786 16.2048H27.444C27.4123 16.8207 27.3288 17.4253 27.1944 18.0118ZM21.1913 13.26C19.9856 13.26 18.9714 14.033 18.6963 15.072H17.4486C17.7419 13.4042 19.3085 12.1271 21.1913 12.1271C23.074 12.1271 24.6407 13.4042 24.9339 15.072H23.6862C23.4111 14.0331 22.3969 13.26 21.1913 13.26ZM22.3892 15.072H19.9933C20.2164 14.6691 20.6697 14.3928 21.1913 14.3928C21.7129 14.3928 22.1662 14.6691 22.3892 15.072ZM27.4002 15.072H26.1695C25.8668 12.7774 23.7497 10.9943 21.1913 10.9943C18.6329 10.9943 16.5158 12.7774 16.2131 15.072H14.9824C15.0382 14.5429 15.1716 14.0345 15.3716 13.5566C15.3757 13.5467 15.3798 13.5369 15.384 13.5271C15.3858 13.5228 15.3877 13.5185 15.3895 13.5143C15.3912 13.5104 15.3928 13.5066 15.3945 13.5028C15.3986 13.4932 15.4027 13.4837 15.4069 13.4741C15.4104 13.466 15.414 13.4578 15.4176 13.4496C15.4194 13.4457 15.4211 13.4418 15.4228 13.438C15.6009 13.0392 15.8259 12.6628 16.0913 12.3146C16.0967 12.3079 16.1019 12.3011 16.1069 12.2943C16.4608 11.8343 17.3883 11.0618 17.3994 11.054C17.4016 11.0524 17.4039 11.0509 17.4062 11.0492C17.5001 10.9827 17.5963 10.9185 17.6948 10.8565C17.6977 10.8547 17.7006 10.8527 17.7036 10.8508C18.3695 10.4335 19.1268 10.132 19.9413 9.97803L19.9438 9.97758C20.347 9.90151 20.7642 9.86158 21.1913 9.86158C24.4249 9.86158 27.0918 12.1515 27.4002 15.072ZM22.4302 8.82398C22.1049 8.77345 21.7726 8.74241 21.4347 8.73239L27.976 2.67524L28.5233 3.182L22.4302 8.82398Z" fill="#918E85"/>
</svg>
