<svg width="32" height="24" viewBox="0 0 32 24" fill="none" xmlns="http://www.w3.org/2000/svg">
<path d="M17.8977 5.5H4.08514L2.90497 3.3846C2.7725 3.14715 2.5219 3 2.25 3H0.75C0.335786 3 0 3.33579 0 3.75C0 4.16421 0.335786 4.5 0.75 4.5H1.8096L2.97429 6.58765L5.66037 12.5309L5.66312 12.5369L5.89971 13.0604L3.20287 15.937C3.00895 16.1439 2.94825 16.4424 3.04599 16.7085C3.14372 16.9747 3.38317 17.163 3.66486 17.1952L6.12299 17.4761C9.19767 17.8275 12.3024 17.8275 15.377 17.4761L17.8352 17.1952C18.2467 17.1481 18.5422 16.7764 18.4952 16.3648C18.4481 15.9533 18.0764 15.6578 17.6649 15.7049L15.2067 15.9858C12.2452 16.3242 9.25481 16.3242 6.29331 15.9858L5.31779 15.8743L7.29717 13.763C7.31632 13.7425 7.3341 13.7213 7.35052 13.6994L8.10334 13.7974C9.15826 13.9347 10.2246 13.9616 11.2851 13.8777C13.7586 13.6821 16.051 12.5051 17.6515 10.6091L18.2295 9.92425C18.249 9.90125 18.267 9.87711 18.2835 9.85194L19.3609 8.21009C20.1245 7.04633 19.2897 5.5 17.8977 5.5Z" fill="#D1A028"/>
<path d="M5.25 18.75C4.42157 18.75 3.75 19.4216 3.75 20.25C3.75 21.0784 4.42157 21.75 5.25 21.75C6.07843 21.75 6.75 21.0784 6.75 20.25C6.75 19.4216 6.07843 18.75 5.25 18.75Z" fill="#D1A028"/>
<path d="M14.75 20.25C14.75 19.4216 15.4216 18.75 16.25 18.75C17.0784 18.75 17.75 19.4216 17.75 20.25C17.75 21.0784 17.0784 21.75 16.25 21.75C15.4216 21.75 14.75 21.0784 14.75 20.25Z" fill="#D1A028"/>
</svg>
