<svg width="45" height="45" viewBox="0 0 45 45" fill="none" xmlns="http://www.w3.org/2000/svg">
<path fill-rule="evenodd" clip-rule="evenodd" d="M22.5 43.5938C33.3731 43.5938 42.1875 34.7794 42.1875 23.9062C42.1875 13.0331 33.3731 4.21875 22.5 4.21875C11.6269 4.21875 2.8125 13.0331 2.8125 23.9062C2.8125 27.4372 3.74203 30.751 5.36973 33.6164L2.8125 43.5938L13.099 41.2085C15.8926 42.7295 19.0954 43.5938 22.5 43.5938ZM22.5 40.5649C31.7003 40.5649 39.1587 33.1066 39.1587 23.9062C39.1587 14.7059 31.7003 7.2476 22.5 7.2476C13.2997 7.2476 5.84135 14.7059 5.84135 23.9062C5.84135 27.4585 6.95321 30.7511 8.8479 33.455L7.35577 39.0505L13.0499 37.6269C15.735 39.4799 18.9908 40.5649 22.5 40.5649Z" fill="#D1A028"/>
<path d="M39.375 22.5C39.375 31.8198 31.8198 39.375 22.5 39.375C18.9452 39.375 15.6472 38.2759 12.9272 36.3989L7.15909 37.8409L8.6706 32.1728C6.7513 29.4338 5.625 26.0984 5.625 22.5C5.625 13.1802 13.1802 5.625 22.5 5.625C31.8198 5.625 39.375 13.1802 39.375 22.5Z" fill="#0B0A0A"/>
<path fill-rule="evenodd" clip-rule="evenodd" d="M22.5 42.1875C33.3731 42.1875 42.1875 33.3731 42.1875 22.5C42.1875 11.6269 33.3731 2.8125 22.5 2.8125C11.6269 2.8125 2.8125 11.6269 2.8125 22.5C2.8125 26.0309 3.74203 29.3447 5.36973 32.2101L2.8125 42.1875L13.099 39.8022C15.8926 41.3233 19.0954 42.1875 22.5 42.1875ZM22.5 39.1587C31.7003 39.1587 39.1587 31.7003 39.1587 22.5C39.1587 13.2997 31.7003 5.84135 22.5 5.84135C13.2997 5.84135 5.84135 13.2997 5.84135 22.5C5.84135 26.0523 6.95321 29.3449 8.8479 32.0487L7.35577 37.6442L13.0499 36.2207C15.735 38.0736 18.9908 39.1587 22.5 39.1587Z" fill="#D1A028"/>
<path d="M17.5782 13.3594C17.1101 12.4192 16.392 12.5024 15.6666 12.5024C14.3701 12.5024 12.3486 14.0553 12.3486 16.9454C12.3486 19.314 13.3923 21.9068 16.9093 25.7853C20.3035 29.5284 24.7632 31.4647 28.4656 31.3988C32.168 31.3329 32.9297 28.1469 32.9297 27.0709C32.9297 26.594 32.6338 26.3561 32.4299 26.2914C31.1682 25.6859 28.8413 24.5577 28.3118 24.3457C27.7823 24.1338 27.5059 24.4205 27.334 24.5764C26.8539 25.034 25.9021 26.3825 25.5762 26.6858C25.2503 26.9891 24.7645 26.8356 24.5623 26.721C23.8183 26.4224 21.801 25.5251 20.193 23.9664C18.2044 22.0386 18.0877 21.3754 17.713 20.785C17.4133 20.3127 17.6332 20.0229 17.743 19.8963C18.1714 19.4019 18.763 18.6386 19.0284 18.2593C19.2937 17.88 19.083 17.3041 18.9567 16.9454C18.4131 15.4028 17.9526 14.1115 17.5782 13.3594Z" fill="#D1A028"/>
</svg>
